<?xml version="1.0" encoding="UTF-8"?>
<svg id="floor_5" xmlns="http://www.w3.org/2000/svg" viewBox="0 0 1920 1080">
  <defs>
    <style>
      .cls-1 {
        fill: #d6d6d6;
      }

      .cls-1, .cls-2, .cls-3, .cls-4 {
        stroke: #000;
        stroke-miterlimit: 10;
        stroke-width: 2px;
      }

      .cls-2 {
        fill: #fff;
      }

      .cls-3 {
        fill: #fcfcc5;
      }

      .cls-4 {
        fill: #aed5ea;
      }
    </style>
  </defs>
  <g id="building_4">
    <g id="rooms">
      <polygon id="room_4501" class="cls-3" points="611 238 611 254.5 611 458.11 361.5 458.11 361.5 254.5 534.5 254.5 534.5 237.5 611 238"/>
      <rect id="room_4502" class="cls-3" x="633.5" y="316.5" width="264" height="135"/>
      <rect id="room_4503-1" class="cls-3" x="919.5" y="316.5" width="169" height="138.72"/>
      <rect id="room_4503" class="cls-3" x="1094.5" y="316.5" width="91" height="139"/>
      <polygon id="room_4509" class="cls-3" points="610.5 612.5 610.5 833.5 534.5 833.5 534.5 817.5 360.5 817.5 360.5 612.5 610.5 612.5"/>
      <rect id="room_4508-2" class="cls-3" x="633.5" y="550.5" width="109" height="101"/>
      <rect id="room_4508-1" class="cls-3" x="633.5" y="656.5" width="109" height="100"/>
      <rect id="room_4508" class="cls-3" x="747.5" y="550.5" width="326" height="206"/>
      <rect id="room_4507" class="cls-3" x="1077.5" y="550.5" width="105" height="206"/>
      <rect id="room_4506" class="cls-3" x="1211.5" y="690.5" width="75" height="137"/>
      <rect id="room_4505" class="cls-3" x="1309.5" y="725.5" width="153" height="91"/>
      <rect id="room_4504-1" class="cls-3" x="1211.5" y="237.5" width="77" height="169"/>
      <rect id="room_4504" class="cls-3" x="1312.5" y="253.5" width="151" height="202"/>
    </g>
    <rect id="staircase_4-5" class="cls-2" x="326.5" y="487.5" width="229" height="98"/>
    <rect id="staircase_4-5-2" data-name="staircase_4-5" class="cls-2" x="1263.5" y="487.5" width="229" height="97"/>
    <g id="hallway">
      <rect id="hallway-2" data-name="hallway" class="cls-1" x="1088.5" y="392.5" width="6" height="25"/>
      <polyline id="hallway-3" data-name="hallway" class="cls-1" points="1361.5 651.5 1353.5 651.5 1353.5 718.5 1346.5 718.5 1346.5 725.5 1326.5 725.5 1326.5 718.5 1310.5 718.5 1310.5 667.5 1285.5 667.5 1285.5 685.5 1259.5 685.5 1259.5 690.5 1239.5 690.5 1239.5 685.5 1212.5 685.5 1212.5 615.5 1232.5 615.5 1232.5 584.5 1211.5 584.5 1211.5 522.5 1140.5 522.5 1140.5 550.5 1107.5 550.5 1107.5 522.5 919.5 522.5 919.5 516.5 897.5 516.5 897.5 522.5 826.5 522.5 826.5 550.5 799.5 550.5 799.5 522.5 610.5 522.5 610.5 584.5 582.5 584.5 582.5 612.5 555.5 612.5 555.5 458.5 582.5 458.5 582.5 487.5 610.5 487.5 610.5 494.5 633.5 494.5 633.5 458.5 667.5 458.5 667.5 451.5 691.5 451.5 691.5 458.5 897.5 458.5 897.5 467.5 919.5 467.5 919.5 462.5 1134.5 462.5 1134.5 455.5 1159.5 455.5 1159.5 462.5 1185.5 462.5 1185.5 487.5 1244.5 487.5 1244.5 455.5 1213.5 455.5 1213.5 413.5 1244.5 413.5 1273.5 413.5 1312.5 413.5 1312.5 444.5 1288.5 444.5 1288.5 455.5 1273.5 455.5 1273.5 487.5 1263.5 487.5 1263.5 584.5 1261.5 584.5 1261.5 615.5 1285.5 615.5 1285.5 638.5 1310.5 638.5 1310.5 615.5 1353.5 615.5 1353.5 628.5 1361.5 628.5"/>
      <rect id="hallway-4" data-name="hallway" class="cls-1" x="742.5" y="599.5" width="5" height="24"/>
      <rect id="hallway-5" data-name="hallway" class="cls-1" x="742.5" y="687.5" width="5" height="23"/>
      <rect id="hallway-6" data-name="hallway" class="cls-1" x="1288.5" y="315.5" width="24" height="34"/>
    </g>
    <polygon id="toilet_man" class="cls-4" points="1361.5 651.5 1361.5 718.5 1462.5 718.5 1462.5 615.5 1361.5 615.5 1361.5 628.5 1361.5 651.5"/>
  </g>
</svg>
