<?xml version="1.0" encoding="UTF-8"?>
<svg id="floor_5" xmlns="http://www.w3.org/2000/svg" viewBox="0 0 1457.32 2426.54">
  <defs>
    <style>
      .cls-1 {
        fill: #d6d6d6;
      }

      .cls-1, .cls-2, .cls-3, .cls-4 {
        stroke: #000;
        stroke-miterlimit: 10;
        stroke-width: 2px;
      }

      .cls-2 {
        fill: #fff;
      }

      .cls-3 {
        fill: #fcfcc5;
      }

      .cls-4 {
        fill: #aed5ea;
      }
    </style>
  </defs>
  <g id="building_4">
    <g id="rooms">
      <polygon id="room_4501" class="cls-3" points="450 649 450 665.5 450 869.11 200.5 869.11 200.5 665.5 373.5 665.5 373.5 648.5 450 649"/>
      <rect id="room_4502" class="cls-3" x="472.5" y="727.5" width="264" height="135"/>
      <rect id="room_4503-1" class="cls-3" x="758.5" y="727.5" width="169" height="138.72"/>
      <rect id="room_4503" class="cls-3" x="933.5" y="727.5" width="91" height="139"/>
      <polygon id="room_4509" class="cls-3" points="449.5 1023.5 449.5 1244.5 373.5 1244.5 373.5 1228.5 199.5 1228.5 199.5 1023.5 449.5 1023.5"/>
      <rect id="room_4508-2" class="cls-3" x="472.5" y="961.5" width="109" height="101"/>
      <rect id="room_4508-1" class="cls-3" x="472.5" y="1067.5" width="109" height="100"/>
      <rect id="room_4508" class="cls-3" x="586.5" y="961.5" width="326" height="206"/>
      <rect id="room_4507" class="cls-3" x="916.5" y="961.5" width="105" height="206"/>
      <rect id="room_4506" class="cls-3" x="1050.5" y="1101.5" width="75" height="137"/>
      <rect id="room_4505" class="cls-3" x="1148.5" y="1136.5" width="153" height="91"/>
      <rect id="room_4504-1" class="cls-3" x="1050.5" y="648.5" width="77" height="169"/>
      <rect id="room_4504" class="cls-3" x="1151.5" y="664.5" width="151" height="202"/>
    </g>
    <rect id="staircase_4-5" class="cls-2" x="165.5" y="898.5" width="229" height="98"/>
    <rect id="staircase_4-5-2" data-name="staircase_4-5" class="cls-2" x="1102.5" y="898.5" width="229" height="97"/>
    <g id="hallway">
      <rect id="hallway-2" data-name="hallway" class="cls-1" x="927.5" y="803.5" width="6" height="25"/>
      <polyline id="hallway-3" data-name="hallway" class="cls-1" points="1200.5 1062.5 1192.5 1062.5 1192.5 1129.5 1185.5 1129.5 1185.5 1136.5 1165.5 1136.5 1165.5 1129.5 1149.5 1129.5 1149.5 1078.5 1124.5 1078.5 1124.5 1096.5 1098.5 1096.5 1098.5 1101.5 1078.5 1101.5 1078.5 1096.5 1051.5 1096.5 1051.5 1026.5 1071.5 1026.5 1071.5 995.5 1050.5 995.5 1050.5 933.5 979.5 933.5 979.5 961.5 946.5 961.5 946.5 933.5 758.5 933.5 758.5 927.5 736.5 927.5 736.5 933.5 665.5 933.5 665.5 961.5 638.5 961.5 638.5 933.5 449.5 933.5 449.5 995.5 421.5 995.5 421.5 1023.5 394.5 1023.5 394.5 869.5 421.5 869.5 421.5 898.5 449.5 898.5 449.5 905.5 472.5 905.5 472.5 869.5 506.5 869.5 506.5 862.5 530.5 862.5 530.5 869.5 736.5 869.5 736.5 878.5 758.5 878.5 758.5 873.5 973.5 873.5 973.5 866.5 998.5 866.5 998.5 873.5 1024.5 873.5 1024.5 898.5 1083.5 898.5 1083.5 866.5 1052.5 866.5 1052.5 824.5 1083.5 824.5 1112.5 824.5 1151.5 824.5 1151.5 855.5 1127.5 855.5 1127.5 866.5 1112.5 866.5 1112.5 898.5 1102.5 898.5 1102.5 995.5 1100.5 995.5 1100.5 1026.5 1124.5 1026.5 1124.5 1049.5 1149.5 1049.5 1149.5 1026.5 1192.5 1026.5 1192.5 1039.5 1200.5 1039.5"/>
      <rect id="hallway-4" data-name="hallway" class="cls-1" x="581.5" y="1010.5" width="5" height="24"/>
      <rect id="hallway-5" data-name="hallway" class="cls-1" x="581.5" y="1098.5" width="5" height="23"/>
      <rect id="hallway-6" data-name="hallway" class="cls-1" x="1127.5" y="726.5" width="24" height="34"/>
    </g>
    <polygon id="toilet_man" class="cls-4" points="1200.5 1062.5 1200.5 1129.5 1301.5 1129.5 1301.5 1026.5 1200.5 1026.5 1200.5 1039.5 1200.5 1062.5"/>
  </g>
</svg>